<svg width="800" height="800" viewBox="0 0 24 24" fill="none" xmlns="http://www.w3.org/2000/svg"><path d="M6.457 9.733a.75.75 0 1 0 1.086 1.034L6.457 9.733Zm6.086-4.216a.75.75 0 1 0-1.086-1.034l1.086 1.034Zm0-1.034a.75.75 0 1 0-1.086 1.034l1.086-1.034Zm3.914 6.284a.75.75 0 1 0 1.086-1.034l-1.086 1.034ZM12.75 5a.75.75 0 0 0-1.5 0h1.5Zm-1.5 14a.75.75 0 0 0 1.5 0h-1.5Zm-3.707-8.233 5-5.25-1.086-1.034-5 5.25 1.086 1.034Zm3.914-5.25 5 5.25 1.086-1.034-5-5.25-1.086 1.034ZM11.25 5v14h1.5V5h-1.5Z" fill="#000"/></svg>